# xmcd CD database file
#
# Track frame offsets:
#	150
#	21769
#	39337
#	58655
#	71650
#	96114
#	121136
#
# Disc length: 1712 seconds
#
# Revision: 0
# Processed by: cddbd v1.5.2PL0 Copyright (c) Steve Scherf et al.
# Submitted via: CDex 1.78
#
DISCID=5506ae07
DTITLE=Matt Woosey - Draw A Line - The Collection - Disc 1 of 5 - Old Smitty
DYEAR=2008
DGENRE=Blues
TTITLE0=Driving
TTITLE1=For You
TTITLE2=Lovin' Me Ain't Easy
TTITLE3=Malvern In The Summer Time
TTITLE4=Million Miles
TTITLE5=On A Roll
TTITLE6=She Gives Me Love
EXTD=YEAR: 2008
EXTT0=
EXTT1=
EXTT2=
EXTT3=
EXTT4=
EXTT5=
EXTT6=
PLAYORDER=
